<svg width="214" height="214" viewBox="0 0 214 214" fill="none" xmlns="http://www.w3.org/2000/svg">
<g id="Group 120">
<g id="Group 93">
<circle id="Ellipse 13" cx="107" cy="107" r="107" fill="#262E3B"/>
</g>
<g id="Group 119">
<path id="Vector" d="M78.1975 104.666C78.1975 106.291 78.3736 107.608 78.6807 108.574C79.0706 109.66 79.54 110.717 80.0852 111.734C80.3047 112.086 80.3923 112.437 80.3923 112.744C80.3923 113.183 80.1292 113.622 79.5585 114.061L76.793 115.905C76.3978 116.169 76.0027 116.3 75.6511 116.3C75.2124 116.3 74.7732 116.08 74.3341 115.685C73.7426 115.05 73.2135 114.359 72.754 113.622C72.3149 112.876 71.8757 112.042 71.393 111.032C67.9688 115.071 63.6662 117.09 58.4864 117.09C54.799 117.09 51.8575 116.036 49.7062 113.93C47.5554 111.822 46.458 109.012 46.458 105.501C46.458 101.769 47.775 98.7402 50.453 96.4574C53.1304 94.1746 56.6867 93.0332 61.2083 93.0332C62.7009 93.0332 64.2374 93.1647 65.8615 93.3843C67.4861 93.6039 69.1542 93.955 70.9104 94.3501V91.1455C70.9104 87.8088 70.2076 85.4824 68.8466 84.1214C67.4421 82.7604 65.0712 82.1017 61.691 82.1017C60.1545 82.1017 58.5744 82.2778 56.9498 82.6729C55.3257 83.0675 53.7451 83.5507 52.2086 84.1655C51.5063 84.4726 50.9796 84.6481 50.672 84.7362C50.3649 84.8242 50.1453 84.8677 49.9698 84.8677C49.355 84.8677 49.0479 84.4285 49.0479 83.5067V81.3554C49.0479 80.6532 49.136 80.1265 49.355 79.8194C49.5746 79.5118 49.9698 79.2047 50.5845 78.8976C52.1211 78.1073 53.9647 77.4485 56.1155 76.9218C58.2673 76.3511 60.5501 76.088 62.9645 76.088C68.1889 76.088 72.0083 77.273 74.4667 79.6438C76.881 82.0142 78.1105 85.614 78.1105 90.4432V104.666H78.1975ZM60.374 111.339C61.8231 111.339 63.3156 111.076 64.8957 110.549C66.4762 110.022 67.8813 109.056 69.0662 107.739C69.7689 106.906 70.2956 105.984 70.5587 104.93C70.8223 103.877 70.9979 102.603 70.9979 101.111V99.2669C69.6666 98.9429 68.3181 98.6937 66.9589 98.5206C65.5903 98.3468 64.2121 98.2588 62.8324 98.257C59.8908 98.257 57.7401 98.8277 56.2916 100.013C54.8425 101.199 54.1403 102.867 54.1403 105.062C54.1403 107.125 54.667 108.661 55.7644 109.715C56.8183 110.813 58.3548 111.339 60.374 111.339ZM95.6258 116.08C94.8355 116.08 94.3088 115.949 93.9577 115.641C93.6066 115.378 93.2989 114.764 93.0359 113.93L82.7196 79.9949C82.4555 79.1166 82.324 78.5459 82.324 78.2388C82.324 77.5366 82.6751 77.1409 83.3779 77.1409H87.6799C88.5137 77.1409 89.0849 77.273 89.392 77.5801C89.7432 77.8437 90.0068 78.4584 90.2698 79.2922L97.645 108.354L104.493 79.2922C104.713 78.4144 104.977 77.8437 105.327 77.5801C105.679 77.317 106.294 77.1414 107.084 77.1414H110.596C111.429 77.1414 112.001 77.273 112.351 77.5801C112.703 77.8437 113.01 78.4584 113.186 79.2922L120.122 108.705L127.716 79.2922C127.979 78.4144 128.287 77.8437 128.594 77.5801C128.945 77.317 129.516 77.1414 130.306 77.1414H134.389C135.092 77.1414 135.487 77.4925 135.487 78.2388C135.487 78.4584 135.443 78.678 135.399 78.9411C135.355 79.2047 135.267 79.5558 135.092 80.039L124.511 113.973C124.248 114.852 123.941 115.422 123.589 115.685C123.238 115.949 122.668 116.125 121.922 116.125H118.146C117.312 116.125 116.741 115.993 116.39 115.685C116.039 115.378 115.732 114.808 115.556 113.93L108.751 85.614L101.991 113.885C101.771 114.764 101.508 115.334 101.157 115.641C100.806 115.949 100.191 116.08 99.4011 116.08H95.6258ZM152.037 117.266C149.754 117.266 147.472 117.002 145.277 116.476C143.081 115.949 141.37 115.378 140.228 114.72C139.526 114.324 139.042 113.886 138.867 113.491C138.696 113.103 138.607 112.685 138.604 112.261V110.022C138.604 109.1 138.955 108.661 139.614 108.661C139.883 108.662 140.149 108.707 140.404 108.793C140.667 108.881 141.062 109.056 141.501 109.232C143.052 109.914 144.671 110.429 146.33 110.769C148.05 111.118 149.8 111.294 151.555 111.295C154.32 111.295 156.471 110.813 157.964 109.847C159.456 108.881 160.247 107.476 160.247 105.676C160.247 104.447 159.852 103.437 159.061 102.603C158.271 101.769 156.778 101.023 154.628 100.32L148.262 98.3451C145.057 97.3352 142.687 95.8427 141.238 93.867C139.789 91.9352 139.043 89.7845 139.043 87.5017C139.043 85.658 139.438 84.0334 140.228 82.6284C141.018 81.2239 142.072 79.9949 143.389 79.0291C144.706 78.0192 146.199 77.273 147.955 76.7463C149.71 76.2196 151.554 76 153.486 76C154.452 76 155.461 76.044 156.427 76.1756C157.437 76.3071 158.359 76.4827 159.281 76.6582C160.159 76.8778 160.993 77.0974 161.783 77.361C162.574 77.6241 163.188 77.8877 163.627 78.1508C164.242 78.5024 164.68 78.8535 164.944 79.2487C165.207 79.5998 165.339 80.0825 165.339 80.6972V82.7604C165.339 83.6823 164.988 84.1655 164.329 84.1655C163.978 84.1655 163.407 83.9894 162.662 83.6383C160.159 82.4968 157.349 81.9261 154.232 81.9261C151.73 81.9261 149.754 82.3213 148.393 83.1556C147.033 83.9894 146.33 85.2628 146.33 87.0625C146.33 88.2919 146.769 89.3453 147.647 90.1796C148.525 91.0134 150.15 91.8477 152.476 92.594L158.71 94.5697C161.871 95.5796 164.154 96.9841 165.515 98.7837C166.876 100.584 167.534 102.647 167.534 104.93C167.534 106.818 167.139 108.53 166.392 110.022C165.603 111.515 164.549 112.832 163.188 113.886C161.827 114.983 160.203 115.773 158.315 116.344C156.339 116.959 154.276 117.266 152.037 117.266Z" fill="#F6F8FC"/>
<path id="Vector_2" d="M160.334 138.601C145.891 149.269 124.907 154.932 106.864 154.932C81.5773 154.932 58.7936 145.581 41.5849 130.04C40.2239 128.811 41.4528 127.143 43.0769 128.109C61.6906 138.908 84.6504 145.449 108.401 145.449C124.424 145.449 142.028 142.113 158.227 135.265C160.641 134.167 162.705 136.845 160.334 138.601ZM166.349 131.752C164.505 129.382 154.144 130.611 149.447 131.182C148.042 131.358 147.822 130.128 149.096 129.206C157.349 123.411 170.914 125.08 172.494 127.011C174.075 128.987 172.055 142.552 164.329 149.049C163.144 150.059 162.002 149.532 162.529 148.215C164.285 143.869 168.192 134.079 166.349 131.752Z" fill="#FF9900"/>
</g>
</g>
</svg>
